<mxfile host="app.diagrams.net" agent="Mozilla/5.0 (X11; Linux x86_64) AppleWebKit/537.36 (KHTML, like Gecko) Chrome/128.0.0.0 Safari/537.36" version="24.7.12">
  <diagram name="Page-1" id="y1A6RCGTtrAThKQPtxaU">
    <mxGraphModel dx="1134" dy="1050" grid="1" gridSize="10" guides="1" tooltips="1" connect="1" arrows="1" fold="1" page="1" pageScale="1" pageWidth="1024" pageHeight="768" math="0" shadow="0">
      <root>
        <mxCell id="0" />
        <mxCell id="1" parent="0" />
        <mxCell id="jpGQAsMqD0ZTp0lZuSL0-15" value="" style="rounded=0;whiteSpace=wrap;html=1;fontSize=24;strokeColor=none;" vertex="1" parent="1">
          <mxGeometry y="40" width="1023" height="767" as="geometry" />
        </mxCell>
        <mxCell id="jpGQAsMqD0ZTp0lZuSL0-19" value="" style="whiteSpace=wrap;html=1;aspect=fixed;fillColor=#f8cecc;strokeColor=none;strokeWidth=3;fillStyle=hatch;" vertex="1" parent="1">
          <mxGeometry x="211.5" y="168" width="638.5" height="638.5" as="geometry" />
        </mxCell>
        <mxCell id="jpGQAsMqD0ZTp0lZuSL0-21" value="" style="shape=datastore;whiteSpace=wrap;html=1;" vertex="1" parent="1">
          <mxGeometry x="440.75" y="384" width="188.5" height="296" as="geometry" />
        </mxCell>
        <mxCell id="jpGQAsMqD0ZTp0lZuSL0-22" value="" style="shape=image;verticalLabelPosition=bottom;labelBackgroundColor=default;verticalAlign=top;aspect=fixed;imageAspect=0;image=data:image/svg+xml,PHN2ZyB4bWxucz0iaHR0cDovL3d3dy53My5vcmcvMjAwMC9zdmciIHZpZXdCb3g9IjAgMCAxMjggMTI4Ij48cGF0aCBkPSJNODcuMjU5IDEwMC4xMzljLjE2OS0uMzI1LjMzMS0uNjEyLjQ2OS0uOTA5LjA4Ny0uMTkuMjIxLS4yMjguNDEtLjIyMyAxLjEzMy4wMzIgMi4yNjYuMDY3IDMuNC4wNzguOTYzLjAxIDEuOTI4LS4wMDggMi44OTItLjAxOSAxLjA4Ni0uMDEzIDIuMTcyLS4wNyAzLjI1Ny0uMDM5IDEuNDQ1LjA0MiAyLjg1My4zMjUgNC4xNi45NjggMS41NjEuNzY5IDIuNzQyIDEuOTQgMy41NDcgMy40ODNhOC43MSA4LjcxIDAgMDEuOTMxIDMuMTRjLjE3MiAxLjYwOC4wNTkgMy4xNzktLjQ1MSA0LjcxNy0uNjMyIDEuOTA2LTEuODMyIDMuMzY1LTMuNDk5IDQuNDU4LTEuMjgzLjg0MS0yLjY5IDEuMzM4LTQuMTk4IDEuNjIyLTEuNTk2LjMwMS0zLjE5Ny4yMDQtNC43OTguMjA5LTEuNzU2LjAwNy0zLjUxMS0uMDMxLTUuMjY3LS4wNTEtLjMwNy0uMDAzLS4zNTEtLjA2MS0uMjctLjM1NGwuMDc1LS4yN2MuMTcxLS41MzguMjYzLS41NjIuODA5LS42NTJhMi44MyAyLjgzIDAgMDAxLjA4Ny0uNDEzYy4xODQtLjEyMi4yNi0uNDQuMzMyLS42ODUuMDYyLS4yMTQuMDY1LS40NDkuMDY3LS42NzUuMDI1LTMuNDI1LjA1MS02Ljg0OS4wNjUtMTAuMjcyYTQ0LjA3NyA0NC4wNzcgMCAwMC0uMDY1LTIuNTk2Yy0uMDM0LS42MDUtLjM1Ny0xLjAxOS0xLjA3Ny0xLjE2Mi0uNTYtLjExMS0xLjEyNC0uMTk3LTEuNjg3LS4yOTZsLS4xODktLjA1OXptMTYuMDc2IDguMjkzYy0uMDc2LS42ODItLjExMy0xLjM3LS4yMzUtMi4wNDItLjI5Mi0xLjYxMy0uOTk4LTMuMDE4LTIuMjM4LTQuMTE5LTIuMDA1LTEuNzc5LTQuNDE5LTIuMDUzLTYuOTQ5LTEuODQxLS41NzYuMDQ4LS43LjI0NS0uNzA5LjgzNy0uMDE0Ljg0LS4wMjggMS42OC0uMDI5IDIuNTItLjAwNCAyLjY2NC0uMDA0IDUuMzI4IDAgNy45OTIuMDAxLjc1OC4wMDkgMS41MTYuMDMxIDIuMjcyLjAyNC43NzQuMzA1IDEuNDI5IDEuMDYzIDEuNzI5IDEuMTk1LjQ3MyAyLjQ1Mi41MjkgMy43MDYuMzM2IDIuMDAzLS4zMDcgMy40MDQtMS40NzQgNC4zNDQtMy4yMjMuNzQ0LTEuMzg4Ljk1NC0yLjkwMyAxLjAxNi00LjQ2MXptNC44NjkgOS4wNzFjLS4wMjQtLjQxNS4xNDYtLjc1OC4zNTYtMS4wNzMuMDU3LS4wODUuMjUzLS4wODEuMzg4LS4xMDhsMS4xNDYtLjIyN2MuNDA1LS4wODYuNjE4LS4zNTguNjc1LS43NTUuMDM4LS4yNjIuMDc0LS41MjcuMDc3LS43OTJhODc5LjYgODc5LjYgMCAwMC4wNTktNi4yOTFjLjAxLTIuMS4wMDItNC4yLjAwMi02LjNsLS4wMDktLjQwMWMtLjA0MS0uNjc1LS4zNjctMS4wMjUtMS4wMzctMS4xMjRsLTEuNDUzLS4yMjFjLS4xNzktLjAyNC0uMjQ0LS4xMS0uMTc5LS4yNjkuMTEyLS4yNzEuMjE5LS41NTIuMzc3LS43OTYuMDU5LS4wOS4yNTgtLjEyNS4zOTItLjEyMi42OTQuMDEgMS4zODguMDYyIDIuMDgyLjA2MWw2LjA0MS0uMDM2YzEuMTY0LS4wMDEgMi4yODguMjAyIDMuMzMyLjc1OSAxLjE0OS42MTIgMS43OTIgMS41NTkgMS45NzYgMi44NDkuMTkyIDEuMzU1LS4yMTkgMi40OTctMS4yMDkgMy40MDQtLjQwNy4zNzQtLjkzNC42MTgtMS40MDYuOTIybC0uMTU0LjA5NmMuNDM4LjE2MS44NTUuMyAxLjI2MS40NjYgMS4xODguNDg3IDIuMTMzIDEuMjQ4IDIuNjMzIDIuNDYzLjM5NS45NTkuMzk1IDEuOTU5LjE2MSAyLjk1My0uMzY0IDEuNTU2LTEuMzg5IDIuNTkxLTIuNzIyIDMuMzc0LTEuMjUxLjczNS0yLjYwNSAxLjE2My00LjA0NyAxLjIzNS0xLjMzLjA2Ny0yLjY2Ni4wNDItMy45OTkuMDU3bC0uNzcyLjAwNGE5OTYuMTA2IDk5Ni4xMDYgMCAwMS0zLjg1NC0uMDk2bC0uMTE3LS4wMzJ6bTUuNTM3LTYuMDg5aC4wMTNjMCAuNjU4LS4wMDkgMS4zMTYuMDAzIDEuOTc0LjAwOC40MjYtLjAwNy44NjQuMDg1IDEuMjc0LjEzOC42MTMuNDE4IDEuMTY2IDEuMTA2IDEuMzQyYTYuNjcxIDYuNjcxIDAgMDAyLjgxOC4xMjRjMS4xNzctLjIwNSAyLjExNi0uNzk1IDIuNjMxLTEuOTE2LjM4Mi0uODMzLjQzOS0xLjcxNi4zMDgtMi42MTgtLjE3NC0xLjE4OC0uODA1LTIuMDUtMS44NTQtMi42MTUtLjY4OC0uMzcxLTEuNDIyLS41OTgtMi4yMDQtLjYyOC0uODc2LS4wMzMtMS43NTMtLjAzNS0yLjYyOS0uMDYyLS4yNDYtLjAwNy0uMjguMTE4LS4yNzkuMzIuMDA1LjkzNC4wMDIgMS44NjkuMDAyIDIuODA1em0xLjg2NS00LjQ3NWMuNDc5LS4wMjQgMS4wMjEtLjAzMSAxLjU2LS4wODUgMS4wMzItLjEwMyAxLjc1OS0uNjIyIDIuMTM4LTEuNjA5LjE5My0uNTAxLjE4NS0xLjAxNy4xOS0xLjUzOC4wMTUtMS4zNTctLjc3Ny0yLjQ2OS0yLjA2Ni0yLjkyOS0uOTk1LS4zNTUtMi4wMjEtLjM2MS0zLjA1My0uMzMzLS40MTguMDExLS42MDUuMTk0LS42MTEuNjE1bC0uMDYyIDUuNDg5Yy0uMDAzLjIxOC4wOTEuMzEyLjMwMy4zMTlsMS42MDEuMDcxeiIgZmlsbD0iIzk0Nzk1RCIgY2xpcC1ydWxlPSJldmVub2RkIiBmaWxsLXJ1bGU9ImV2ZW5vZGQiLz48cGF0aCBkPSJNMTAuNTQzIDExNi40NDhsLS4wNzMuOTQ0Yy0uNjggMC0xLjMwNy0uMDA1LTEuOTM0LjAwMi0xLjE4MS4wMTItMi4zNjIuMDMxLTMuNTQ0LjA0OGwtLjExNC4wMDdjLS4xNjktLjAyLS40NzYtLjAyLS40ODQtLjA3LS4wNS0uMjgxLS4wMzQtLjU3Ni0uMDIxLS44NjcuMDAxLS4wMzMuMTE2LS4wNzUuMTgzLS4wOTFsLjkxOS0uMjA1Yy41NzMtLjE0OS43NzUtLjM5Ni44MDItLjk4OC4wMzEtLjY2Ny4wNjItMS4zMzUuMDY1LTIuMDAyLjAwOS0xLjY0Mi0uMDAxLTMuMjgyLjAwNi00LjkyNC4wMDEtLjM4NC0uMTMyLS42Ny0uNDktLjgyNmE0My43ODcgNDMuNzg3IDAgMDAtMS4yODUtLjU0NmMtLjIwNC0uMDgyLS40NjktLjEyNy0uNDQ1LS40MDEuMDI0LS4yNzkuMjgxLS4zNTIuNTIzLS40MDcgMS4wMDItLjIyOSAyLjAwNS0uNDUyIDMuMDA0LS42OTYuMzIyLS4wNzkuNjMtLjIxMiAxLjAxNS0uMzQ2LjAyLjIwOC4wNTcuNDA2LjA1My42MDRsLS4wNTkuOTQxYy0uMDAxLjEwNi4wNTQuMjQ4LjEzMy4zMDcuMDQ4LjAzNy4yMDktLjAzLjI4OS0uMDkyLjg1NC0uNjUgMS43NTgtMS4yMTEgMi43ODktMS41MzggMS41OTctLjUwNyAyLjk2OC0uMDM3IDMuOTI4IDEuMzQuMzM4LjQ4NS4zMzkuNDg1LjgwOC4xNDYuODA1LS41ODUgMS42NDctMS4xMDEgMi41ODktMS40NDEgMi4wNjgtLjc0NyA0LjA1NS4yMDEgNC43NzQgMi4yODQuMjYyLjc1Ni4zNjIgMS41MzcuMzYgMi4zMzVsLS4wMTkgNS4yOThjLS4wMDEuNDM3LjE0NC42ODYuNTYuODIyLjQ2Ny4xNTMuOTUxLjI1OCAxLjQ3Ny4zOTZsLS4xMjIuOTExYy0uNTk4IDAtMS4xNDgtLjAwNC0xLjY5OC4wMDEtMS4zNDQuMDEyLTIuNjg4LjAxOS00LjAzMS4wNS0uMjM0LjAwNi0uMjk1LS4wNTItLjMwNy0uMjcxLS4wMzktLjcwMS0uMDQ1LS43LjYxNS0uODU4bC4yMjItLjA1N2MuNjQ1LS4xNzYuODYtLjM3NC44NjUtMS4wMjguMDE1LTEuODc4LjA1NC0zLjc2MS0uMDQxLTUuNjM1LS4wOTktMS45NDQtMS42NDItMi45NzktMy41MjYtMi40ODFhNS4xOTQgNS4xOTQgMCAwMC0xLjY5LjgxNGMtLjE3NS4xMjUtLjIwOC4yNjktLjE5NC40ODguMDUzLjgyOC4wODYgMS42NTcuMDkzIDIuNDg2LjAxMiAxLjQ1MS0uMDA2IDIuOTAyIDAgNC4zNTQuMDAyLjU4OC4yMDMuODEzLjc4NC45NDlsLjg2My4xOTkuMTYuMDM2Yy4wMTIuMjc2LjAyMy41NTIuMDEuODI4LS4wMDguMTczLS4xNDIuMTg4LS4yOTIuMTg1LS44MzktLjAyMS0xLjY3OS0uMDQ5LTIuNTE4LS4wNDctMS4wMjEuMDAyLTIuMDQxLjAzMS0zLjA2MS4wNDloLS4yNGMwLS4yOTMtLjAxNC0uNTczLjAxLS44NTIuMDA1LS4wNjcuMTIzLS4xNjEuMjA0LS4xODJsMS4wMDYtLjIxM2MuNDI3LS4xMDUuNjMxLS4zMjQuNjU1LS43NTguMTE0LTIuMDEuMTk2LTQuMDIxLjAwNy02LjAzYTMuNjk1IDMuNjk1IDAgMDAtLjMyNi0xLjE0NWMtLjUxNS0xLjEzOC0xLjY3NC0xLjYxMy0zLjAxMS0xLjI3MS0uNjM1LjE2Mi0xLjIwOC40NTMtMS43NS44MmEuNzk1Ljc5NSAwIDAwLS4zNzguNjk1YzAgMi4wMDUuMDA3IDQuMDEuMDEzIDYuMDE0bC4wMTEuNzczYy4wMTIuNTM5LjI0MS44MjMuNzc2LjkzOS4zNDQuMDc4LjY5Mi4xMzEgMS4wODIuMjAzeiIgZmlsbD0iIzUwMzgyQiIgY2xpcC1ydWxlPSJldmVub2RkIiBmaWxsLXJ1bGU9ImV2ZW5vZGQiLz48cGF0aCBkPSJNNzEuMDAxIDEwNS4yODVjLjE1NS43NTQuMTUyIDEuNDMyLS40MDIgMS45NDYtLjU1LjUxMS0xLjI0Ni4zMzktMS45MjUuMjI1LjA2My4zNTguMTMzLjY2Mi4xNjcuOTcuMjQ3IDIuMjg5LS43MzggMy45ODgtMi44NjEgNC45NTktLjgwMi4zNjYtMS42NTMuNTAyLTIuNTIyLjU3Mi0uNDMyLjAzNC0uODEuMzY0LS44NTEuNzE5LS4wNDIuMzYuMTg0LjczLjYzNi44MzguNTMzLjEyNyAxLjA4OS4xNjMgMS42MzYuMjI2IDEuMTc0LjEzNCAyLjM2MS4xOTUgMy41MjEuNDA1IDEuNzU0LjMxNiAyLjczMyAxLjg0NyAyLjQyNCAzLjYwOS0uMjc1IDEuNTY4LTEuMTgzIDIuNzA5LTIuNDQ5IDMuNTg0LTIuMTMzIDEuNDc4LTQuNDczIDEuOTEtNi45NjUgMS4xNTYtMS40MjUtLjQzMi0yLjQzLTEuMzY5LTIuNzc3LTIuODg1LS4xNzQtLjc1OS4wMTEtMS40NDYuNTgyLTEuOTYxLjY3OS0uNjEgMS40MTgtMS4xNTQgMi4xMjktMS43M2wuMjMtLjIzMS0uMjY0LS4xODVjLS43MjUtLjM0NC0xLjMwNS0uODE1LTEuNTMtMS42MzMtLjA3Ny0uMjc3LjAwMy0uNDU5LjIzOC0uNjAxLjQtLjI0MS43OTgtLjQ4NiAxLjE5My0uNzM1LjE4Ni0uMTE2LjM3LS4yMzYuNTQzLS4zNy4yMzYtLjE4LjIxNS0uMzE0LS4wNjctLjQxOC0uNjU2LS4yNDItMS4yMzktLjU5My0xLjY5MS0xLjEzMy0uNzU1LS45MDEtLjk2OS0xLjk3NC0uOTA3LTMuMTA3LjA5Ny0xLjc3IDEuMDU4LTIuOTM2IDIuNjItMy42ODYgMS44NTctLjg5MSAzLjcyLS45NDcgNS42MTMtLjEzNS43LjMgMS40MzguMzY0IDIuMTg5LjMxMi41NjEtLjA0IDEuMDUxLS4yNTIgMS40OS0uNzExem0tNi44NDMgMTIuNjgxYy0xLjM5NC0uMDEyLTEuODMxLjE2LTIuNjQ5Ljk5My0uOTE2LjkzNC0uOTExIDIuMjI5LjAwMyAzLjE2Ny42OTQuNzExIDEuNTYgMS4wNDQgMi41MjMgMS4xNDQgMS4xMjUuMTE2IDIuMjMzLjA2OSAzLjI1NS0uNDk0IDEuMDktLjYwMyAxLjYzMi0xLjcyMyAxLjM4Ny0yLjg1MS0uMjAzLS45MzEtLjg4OS0xLjM1Ny0xLjcyNC0xLjYwMi0uOTUtLjI3OC0xLjkzMi0uMzMxLTIuNzk1LS4zNTd6bS0yLjczOC04LjkwOGMuMDUxLjM4Ny4wNzIuNzc5LjE1OCAxLjE1OC4yMjMuOTgyLjY1IDEuODQ1IDEuNjI3IDIuMjgyIDEuMTQ3LjUxNSAyLjYxMi4yOTQgMy4xMTQtMS4zMTZhNC44NTMgNC44NTMgMCAwMC0uMTEzLTMuMjc0IDIuNTEyIDIuNTEyIDAgMDAtLjkxLTEuMTg0Yy0uOTk2LS42OTUtMi43OTMtLjc4Ny0zLjUyNS43NDktLjIzOC40OTktLjMzMSAxLjAzLS4zNTEgMS41ODV6IiBmaWxsPSIjNEYzODJCIiBjbGlwLXJ1bGU9ImV2ZW5vZGQiIGZpbGwtcnVsZT0iZXZlbm9kZCIvPjxwYXRoIGQ9Ik00Ny4zNSAxMDUuMDM4Yy4wMzcuMTcxLjExMS4zNjUuMTEzLjU2LjAwMy4zNzEtLjAzNy43NDItLjA1OCAxLjExM3YuMzIybC4zMTQtLjI0Yy44Ni0uNzA4IDEuNzg0LTEuMzExIDIuODYtMS42MzYgMS45NDItLjU4NSAzLjg4Mi40NzggNC41MTUgMi40NTYuMjQuNzUyLjMzNSAxLjUyNS4zNDQgMi4zMTEuMDIgMS43NDYuMDMyIDMuNDkyLjA1IDUuMjM4LjAwNi42MjcuMDc4LjczOS42NzEuOTJhNy40IDcuNCAwIDAwMS4wMy4yMjljLjE5MS4wMy4yNzMuMTA1LjI2My4yOTJsLjAwMi4xNzJjLS4wMDcuNzIzLS4wNTcuNzU2LS43NTguNzU0LTEuNjc4LS4wMDMtMy4zNTUuMDA3LTUuMDMzLjAyMS0uNS4wMDQtLjUwMS4wMTktLjU1MS0uNDc1bC0uMDEtLjI4NGMuMDMxLS40MjYuMDQxLS40MjIuNDYtLjQ4NC4yODItLjA0Mi41NjItLjEwNy44MzctLjE3OS4yODMtLjA3My40MTktLjI4Mi40NTctLjU2Mi4wMTktLjE0Mi4wNDQtLjI4NC4wNDMtLjQyNi0uMDI0LTEuOTA4LjAwNy0zLjgxOC0uMDk3LTUuNzIzLS4wODQtMS41NDEtMS4yNi0yLjQ1OS0yLjgwNy0yLjM1NGE0LjA0NyA0LjA0NyAwIDAwLTIuMDcxLjc0M2MtLjQxMy4yODktLjQ5Ni43MDYtLjQ5NCAxLjE1NS4wMDggMS43ODQuMDI1IDMuNTY4LjA0NCA1LjM1My4wMDQuMzkxLjAxNS43ODIuMDUyIDEuMTcuMDM5LjQyNC4xODguNTk1LjYwNC42ODcuMzk4LjA4OC44MDQuMTM5IDEuMjI5LjIxbC4wMzYuMzI4Yy4wMTQuNzY1LS4wNjYuODIyLS44MDkuODE5LTEuNzM1LS4wMDctMy40Ny4wMDQtNS4yMDQuMDIzLS4yNzMuMDA0LS4zODktLjA4Mi0uMzgyLS4zNDhsLS4wMDQtLjExNGMtLjA0NS0uNjg5LS4wMjUtLjcxNS42MjctLjgyN2wuMzA4LS4wNjJjLjcwNi0uMTU5Ljg4Ny0uMzQ3Ljg5Ny0xLjA2NC4wMzMtMi4yNzEuMDQ1LTQuNTQxLjA2OC02LjgxMi4wMDMtLjMyNi0uMTItLjU3OS0uNDI0LS43MTRhNTMuODggNTMuODggMCAwMC0xLjI4Ny0uNTQ0Yy0uMjM4LS4wOTgtLjUxLS4xNi0uNTE5LS40ODktLjAwNi0uMjMyLjI0Mi0uNDM3LjU4MS0uNTA2LjY4MS0uMTM4IDEuMzY4LS4yNTMgMi4wNDEtLjQyMi42Ny0uMTY3IDEuMzI4LS4zOTEgMi4wNjItLjYxMXoiIGZpbGw9IiM0RjM3MkIiIGNsaXAtcnVsZT0iZXZlbm9kZCIgZmlsbC1ydWxlPSJldmVub2RkIi8+PHBhdGggZD0iTTg0Ljg2NSAxMTAuOTdjLS4wMzIgMi4xMjEtLjU4MyAzLjgzNi0yLjA4MyA1LjEyMy0xLjkgMS42MzMtNC44NjQgMi4xODgtNy4yODcuOTY3LTEuMDM0LS41MjEtMS43OTQtMS4zMi0yLjI4OS0yLjM1Ny0uNzU5LTEuNTk1LS45NDktMy4yNzItLjU1My00Ljk5LjM5Mi0xLjY5OSAxLjQyMS0yLjkzIDIuOTYxLTMuNzI3IDEuNTg0LS44MTkgMy4yNTItMS4xMzkgNS4wMTEtLjcwOSAyLjIyNS41NDMgMy44MjQgMi4zNTcgNC4xNDIgNC42NjcuMDU3LjQwNS4wNzkuODE1LjA5OCAxLjAyNnptLTIuNTc3IDEuMTQ5bC0uMDg2LS4wMWMwLS4yLjAxMS0uNC0uMDAyLS42LS4wNzMtMS4yNDYtLjM1My0yLjQzMy0xLjA3NS0zLjQ3Ni0uNjg1LS45ODgtMS42MTgtMS41NzEtMi44MzItMS42NTYtMS4zNTktLjA5Ni0yLjUwMS42NjQtMi45MDIgMi4wNTItLjYwMiAyLjA4NC0uMzk4IDQuMTE1LjY2IDYuMDI0LjQ2MS44MzIgMS4xNDQgMS40NDYgMi4wNTkgMS43NjkgMS43OTMuNjMxIDMuMzgzLS4xODYgMy44NS0yLjAyMi4xNzItLjY3OC4yMjItMS4zODcuMzI4LTIuMDgxeiIgZmlsbD0iIzRGMzgyQiIgY2xpcC1ydWxlPSJldmVub2RkIiBmaWxsLXJ1bGU9ImV2ZW5vZGQiLz48cGF0aCBkPSJNNDAuODE5IDExMS4xMzRjLS4wMzcgMS41MjItLjM5NiAyLjkyOS0xLjMzNiA0LjE1Mi0xLjAwNyAxLjMxLTIuMzkxIDIuMDEtMy45NjUgMi4zMDUtMS44NjEuMzQ4LTMuNjA5LjAzMi01LjEwNC0xLjIxNy0uNzEtLjU5NC0xLjE5NS0xLjM1NS0xLjUxNS0yLjIyMS0uNTI1LTEuNDItLjY1Ni0yLjg3NS0uMzMzLTQuMzU4LjM0NS0xLjU4NyAxLjI0MS0yLjggMi42My0zLjYxNCAxLjYwNi0uOTM5IDMuMzM5LTEuMzU4IDUuMTktLjkzNiAyLjM4LjU0NCAzLjc1NCAyLjA5NSA0LjI2MiA0LjQ0My4xMDIuNDc0LjExNi45NjQuMTcxIDEuNDQ2em0tMi42MDYgMS4wMDRsLS4wNjktLjAxdi0uMjg2Yy0uMDM5LTEuMzk2LS4zMTItMi43MjYtMS4xNDUtMy44ODYtLjYxNy0uODYxLTEuNDQzLTEuNDAxLTIuNTAyLTEuNTUyLTEuNzI2LS4yNDYtMi44NTQuNzc4LTMuMjI4IDIuMTY5LS40ODggMS44MTctLjMzNSAzLjYxMi40MiA1LjMzNS40NzEgMS4wNzQgMS4yMTUgMS45MTEgMi4zNTggMi4zMTcgMS43ODIuNjMzIDMuMzk2LS4yMDUgMy44NDctMi4wMzQuMTY2LS42NjkuMjE2LTEuMzY3LjMxOS0yLjA1M3oiIGZpbGw9IiM0RjM3MkIiIGNsaXAtcnVsZT0iZXZlbm9kZCIgZmlsbC1ydWxlPSJldmVub2RkIi8+PHBhdGggZD0iTTgyLjM2MiAzMy41NDRjMS4yMjcgMy41NDcgMi4xMDkgNy4xNjggMi40IDEwLjkyLjM2IDQuNjU2LjE5NiA5LjI4LS43ODYgMTMuODU5bC0uMTI2LjM2NmMtLjMwOC4wMDEtLjYyMi0uMDM4LS45MjMuMDA5LTIuNTQzLjQtNS4wODMuODE0LTcuNjI0IDEuMjI2LTIuNjI3LjQyNi01LjI1Ni44MzUtNy44NzggMS4yODktLjkyOS4xNi0yLjA3OS0uMDMxLTIuNDU0IDEuMjUzbC0uMTguMDYxLjEyNy03LjY3OC0uMTI5LTE4LjUyNiAxLjIyNC0uMjFjMi4wMDEtLjMyNyA0LjAwMi0uNjYgNi4wMDYtLjk3OSAyLjM5LS4zNzkgNC43ODItLjc0OSA3LjE3NC0xLjExOSAxLjA1Ni0uMTYyIDIuMTEzLS4zMTMgMy4xNjktLjQ3MXoiIGZpbGw9IiM0Mzk5MzQiIGNsaXAtcnVsZT0iZXZlbm9kZCIgZmlsbC1ydWxlPSJldmVub2RkIi8+PHBhdGggZD0iTTYyLjI2NSA4NC45MTFjLTEuMjkxLTEuMTEtMi42MjctMi4xNzEtMy44NjQtMy4zMzktNi42NTgtNi4yOC0xMS41MjktMTMuNjczLTEzLjkyOC0yMi41ODYtLjY2MS0yLjQ1Mi0xLjEwMS00Ljk0NS0xLjI0My03LjQ3OS0uMS0xLjc3NC0uMjQzLTMuNTYzLS4xMTctNS4zMjguMzMzLTQuNjkzIDEuMDEyLTkuMzQxIDIuMzg4LTEzLjg2MmwuMDc2LS4xMDVjLjEzNC4xNzguMzI2LjMzNi4zOTQuNTM3IDEuMzQ0IDMuOTU2IDIuNjc3IDcuOTE2IDQuMDA0IDExLjg3OSA0LjE2OSAxMi40NTEgOC4zMzMgMjQuOTA1IDEyLjUwOSAzNy4zNTQuMDgyLjI0My4yOTMuNDQyLjQ0NS42NjFsLS42NjQgMi4yNjh6IiBmaWxsPSIjNDVBNTM4IiBjbGlwLXJ1bGU9ImV2ZW5vZGQiIGZpbGwtcnVsZT0iZXZlbm9kZCIvPjxwYXRoIGQ9Ik04Mi4zNjIgMzMuNTQ0Yy0xLjA1Ny4xNTctMi4xMTQuMzA5LTMuMTY5LjQ3MS0yLjM5Mi4zNy00Ljc4NC43NC03LjE3NCAxLjExOS0yLjAwMy4zMTgtNC4wMDQuNjUxLTYuMDA2Ljk3OWwtMS4yMjQuMjEtLjAxLS43OThjLS4wNDEtLjY1Ni0uMTA5LTEuMzEyLS4xMTgtMS45NjhsLS4xMzctMTIuNTU0Yy0uMDMyLTIuNjE5LS4wOC01LjIzOC0uMTMzLTcuODU2YTE5OC40MjMgMTk4LjQyMyAwIDAwLS4xNDEtNC44OGMtLjA0LS44NzMtLjE4MS0xLjc0Mi0uMjM3LTIuNjE1LS4wMzMtLjUwMi4wMTEtMS4wMDguMDIyLTEuNTEyLjYyNCAxLjIwOSAxLjIzNSAyLjQyNyAxLjg3NiAzLjYyNyAxLjAxMyAxLjg5NyAyLjYyOCAzLjI5NSA0LjA4MyA0LjgyIDUuNzQ2IDYuMDMxIDkuODI1IDEzLjAzOSAxMi4zNjggMjAuOTU3eiIgZmlsbD0iIzQ2QTAzNyIgY2xpcC1ydWxlPSJldmVub2RkIiBmaWxsLXJ1bGU9ImV2ZW5vZGQiLz48cGF0aCBkPSJNNjQuNzkyIDYyLjUyN2wuMTgtLjA2MWMuMzc1LTEuMjg0IDEuNTI1LTEuMDkzIDIuNDU0LTEuMjUzIDIuNjIyLS40NTQgNS4yNTEtLjg2MyA3Ljg3OC0xLjI4OSAyLjU0MS0uNDExIDUuMDgxLS44MjUgNy42MjQtMS4yMjYuMzAxLS4wNDcuNjE1LS4wMDguOTIzLS4wMDktLjQ3NSAxLjY5Ni0uODQ5IDMuNDI5LTEuNDUyIDUuMDc4LS42ODUgMS44Ny0xLjUxMyAzLjY5Ni0yLjM5MiA1LjQ4NmEzNy41OTUgMzcuNTk1IDAgMDEtNC44NTMgNy40NThjLTEuNDY2IDEuNzYyLTMuMSAzLjM5My00LjczNyA1LjAwMi0uOTA2Ljg4OS0xLjk3MiAxLjYxNC0yLjk2NiAyLjQxNGwtLjI1OC0uMTc2LS45MjctLjc5Mi0uOTU5LTIuMTA0YTMxLjY1IDMxLjY1IDAgMDEtMS4wNjUtNy41MTZsLjAxOC0uNDI4LjEzMS0xLjg1NGMuMDQzLS42MzMuMTAxLTEuMjY1LjEyOC0xLjg5OC4wOTYtMi4yNzYuMTgyLTQuNTU0LjI3My02LjgzMnoiIGZpbGw9IiM0MDk0MzMiIGNsaXAtcnVsZT0iZXZlbm9kZCIgZmlsbC1ydWxlPSJldmVub2RkIi8+PHBhdGggZD0iTTY0Ljc5MiA2Mi41MjdjLS4wOSAyLjI3OC0uMTc2IDQuNTU3LS4yNzMgNi44MzUtLjAyNy42MzQtLjA4NCAxLjI2Ni0uMTI4IDEuODk4bC0uNTg0LjIyMWMtMS4yOTgtMy44MjEtMi41OTctNy42MDItMy44NjctMTEuMzkyLTIuMTAxLTYuMjcxLTQuMTc2LTEyLjU1MS02LjI3NC0xOC44MjRhMzQyMy4wMTMgMzQyMy4wMTMgMCAwMC01LjExOC0xNS4xNzZjLS4wODEtLjIzNi0uMzExLS40MjItLjQ3MS0uNjMxbDMuNzQtNi44NzdjLjEyOS4yMjMuMjk4LjQzMi4zNzkuNjcyIDEuNzMgNS4xMiAzLjQ1NyAxMC4yNDEgNS4xNjkgMTUuMzY3IDIuMjI4IDYuNjcgNC40NDEgMTMuMzQzIDYuNjY3IDIwLjAxNC4wODkuMjY2LjIzNS41MTIuMzc1LjgxMWwuNTEyLS41OTYtLjEyNyA3LjY3OHoiIGZpbGw9IiM0RkFBNDEiIGNsaXAtcnVsZT0iZXZlbm9kZCIgZmlsbC1ydWxlPSJldmVub2RkIi8+PHBhdGggZD0iTTQ4LjA3NiAyNS40NThjLjE2MS4yMDkuMzkxLjM5NS40NzEuNjMxYTMzNzkuNzc0IDMzNzkuNzc0IDAgMDE1LjExOCAxNS4xNzZjMi4wOTggNi4yNzMgNC4xNzMgMTIuNTUzIDYuMjc0IDE4LjgyNCAxLjI3IDMuNzkgMi41NjkgNy41NyAzLjg2NyAxMS4zOTJsLjU4NC0uMjIxLS4xMzEgMS44NTQtLjExOS40MjdjLS4yMDMgMi4wMjktLjM3NCA0LjA2Mi0uNjIyIDYuMDg3LS4xMjQgMS4wMTUtLjM4OSAyLjAxMS0uNTkgMy4wMTUtLjE1MS0uMjE5LS4zNjMtLjQxOC0uNDQ1LS42NjEtNC4xNzctMTIuNDQ5LTguMzQtMjQuOTAzLTEyLjUwOS0zNy4zNTRhMzAxMC43OTEgMzAxMC43OTEgMCAwMC00LjAwNC0xMS44NzljLS4wNjgtLjIwMS0uMjYtLjM1OS0uMzk0LS41MzdsMi41LTYuNzU0eiIgZmlsbD0iIzRBQTczQyIgY2xpcC1ydWxlPSJldmVub2RkIiBmaWxsLXJ1bGU9ImV2ZW5vZGQiLz48cGF0aCBkPSJNNjQuOTE4IDU0Ljg0OWwtLjUxMi41OTZjLS4xNC0uMjk5LS4yODYtLjU0NS0uMzc1LS44MTEtMi4yMjYtNi42NzEtNC40MzktMTMuMzQ0LTYuNjY3LTIwLjAxNGE0NjE4LjA1NyA0NjE4LjA1NyAwIDAwLTUuMTY5LTE1LjM2N2MtLjA4MS0uMjQtLjI1LS40NDktLjM3OS0uNjcybDQuNjI1LTYuMDg0Yy4xNDYuMTk0LjM1NC4zNjcuNDI5LjU4NiAxLjI4NCAzLjc2IDIuNTU2IDcuNTIzIDMuODIyIDExLjI4OSAxLjE4MiAzLjUxOCAyLjM0NiA3LjA0IDMuNTQyIDEwLjU1Mi4wOC4yMzUuMzU5LjQwMS41NDUuNjAxbC4wMS43OTguMTI5IDE4LjUyNnoiIGZpbGw9IiM1N0FFNDciIGNsaXAtcnVsZT0iZXZlbm9kZCIgZmlsbC1ydWxlPSJldmVub2RkIi8+PHBhdGggZD0iTTY0Ljc3OSAzNS41MjVjLS4xODctLjE5OS0uNDY1LS4zNjUtLjU0NS0uNjAxLTEuMTk1LTMuNTEyLTIuMzYtNy4wMzQtMy41NDItMTAuNTUyYTI0OTUuNTgxIDI0OTUuNTgxIDAgMDAtMy44MjItMTEuMjg5Yy0uMDc1LS4yMTktLjI4My0uMzkyLS40MjktLjU4NiAxLjUwNC0xLjQ3MyAyLjk2MS0yLjk5OSA0LjUyNi00LjQwNCAxLjM5MS0xLjI0OCAyLjUwOS0yLjU4NiAyLjU2MS00LjU1OWwuMTEtLjM5My4zOTYuOTk4Yy0uMDEuNTA0LS4wNTUgMS4wMS0uMDIyIDEuNTEyLjA1Ny44NzMuMTk4IDEuNzQyLjIzNyAyLjYxNS4wNzMgMS42MjUuMTA4IDMuMjUzLjE0MSA0Ljg4LjA1MyAyLjYxOC4xMDEgNS4yMzcuMTMzIDcuODU2bC4xMzcgMTIuNTU0Yy4wMS42NTcuMDc5IDEuMzEzLjExOSAxLjk2OXoiIGZpbGw9IiM2MEIyNEYiIGNsaXAtcnVsZT0iZXZlbm9kZCIgZmlsbC1ydWxlPSJldmVub2RkIi8+PHBhdGggZD0iTTYyLjkyOSA4Mi42NDJjLjIwMS0xLjAwNC40NjYtMiAuNTktMy4wMTUuMjQ4LTIuMDI0LjQxOS00LjA1OC42MjItNi4wODdsLjA1MS0uMDA4LjA1LjAwOWEzMS42NSAzMS42NSAwIDAwMS4wNjUgNy41MTZjLS4xMzUuMTc4LS4zMjQuMzM1LS4zOTYuNTM1LS41NTUgMS41NjYtMS4wNzkgMy4xNDUtMS42MzcgNC43MS0uMDc2LjIxNC0uMjkuMzgxLS40MzkuNTY4bC0uNTcxLTEuOTYuNjY1LTIuMjY4eiIgZmlsbD0iI0E5QUE4OCIgY2xpcC1ydWxlPSJldmVub2RkIiBmaWxsLXJ1bGU9ImV2ZW5vZGQiLz48cGF0aCBkPSJNNjIuODM1IDg2Ljg3MWMuMTQ5LS4xODguMzYzLS4zNTQuNDM5LS41NjguNTU4LTEuNTY1IDEuMDgyLTMuMTQ0IDEuNjM3LTQuNzEuMDcxLS4yLjI2MS0uMzU3LjM5Ni0uNTM1bC45NTkgMi4xMDRjLS4xODkuMjY4LS40NTEuNTExLS41NTYuODFsLTEuODM2IDUuMzkyYy0uMDc2LjIxNy0uMzMzLjM2OS0uNTA3LjU1MmwtLjUzMi0zLjA0NXoiIGZpbGw9IiNCNkI1OTgiIGNsaXAtcnVsZT0iZXZlbm9kZCIgZmlsbC1ydWxlPSJldmVub2RkIi8+PHBhdGggZD0iTTYzLjM2NyA4OS45MTVjLjE3My0uMTgzLjQzMS0uMzM1LjUwNy0uNTUybDEuODM2LTUuMzkyYy4xMDQtLjI5OS4zNjctLjU0Mi41NTYtLjgxbC45MjguNzkxYy0uNDQ4LjQ0My0uNjk3Ljk1NS0uNTQ3IDEuNjAybC0uMjgyLjkyM2MtLjEyOC4xNTgtLjMxNC4yOTYtLjM3Ny40NzctLjY0MSAxLjgzNi0xLjI1MiAzLjY4Mi0xLjg5OCA1LjUxNy0uMDgyLjIzMi0uMzA5LjQxNS0uNDY4LjYyMWwtLjI1NS0zLjE3N3oiIGZpbGw9IiNDMkMxQTciIGNsaXAtcnVsZT0iZXZlbm9kZCIgZmlsbC1ydWxlPSJldmVub2RkIi8+PHBhdGggZD0iTTYzLjYyMSA5My4wOTFjLjE2LS4yMDYuMzg3LS4zODkuNDY4LS42MjEuNjQ2LTEuODM1IDEuMjU4LTMuNjgxIDEuODk4LTUuNTE3LjA2My0uMTgxLjI0OS0uMzE4LjM3Ny0uNDc3bC0uMzg5IDQuMjM2Yy0uMTA0LjEyLS4yNTQuMjI1LS4zMDQuMzY0bC0xLjI5NCAzLjcwOGMtLjA5MS4yNTMtLjI2NS40NzktLjQwMS43MTYtLjEyMS0uMTU4LS4zMzctLjMxMS0uMzQ3LS40NzUtLjAzOC0uNjQyLS4wMTEtMS4yODktLjAwOC0xLjkzNHoiIGZpbGw9IiNDRUNEQjciIGNsaXAtcnVsZT0iZXZlbm9kZCIgZmlsbC1ydWxlPSJldmVub2RkIi8+PHBhdGggZD0iTTYzLjk3NyA5NS41MDFjLjEzNi0uMjM3LjMxLS40NjMuNDAxLS43MTZsMS4yOTQtMy43MDhjLjA1LS4xNC4yMDEtLjI0NC4zMDQtLjM2NGwuMDEgMi43OC0uOTMxIDIuMzg3LTEuMDc4LS4zNzl6IiBmaWxsPSIjREJEQUM3IiBjbGlwLXJ1bGU9ImV2ZW5vZGQiIGZpbGwtcnVsZT0iZXZlbm9kZCIvPjxwYXRoIGQ9Ik02NS4wNTUgOTUuODhsLjkzMS0yLjM4Ny4xOTIgMi44MjQtMS4xMjMtLjQzN3oiIGZpbGw9IiNFQkU5REMiIGNsaXAtcnVsZT0iZXZlbm9kZCIgZmlsbC1ydWxlPSJldmVub2RkIi8+PHBhdGggZD0iTTY2LjY0NiA4NS41NTRjLS4xNDktLjY0Ni4wOTktMS4xNTguNTQ3LTEuNjAybC4yNTguMTc2LS44MDUgMS40MjZ6IiBmaWxsPSIjQ0VDREI3IiBjbGlwLXJ1bGU9ImV2ZW5vZGQiIGZpbGwtcnVsZT0iZXZlbm9kZCIvPjxwYXRoIGQ9Ik02NC4yNDIgNzMuNTQybC0uMDUtLjAwOS0uMDUxLjAwOC4xMTktLjQyNy0uMDE4LjQyOHoiIGZpbGw9IiM0RkFBNDEiIGNsaXAtcnVsZT0iZXZlbm9kZCIgZmlsbC1ydWxlPSJldmVub2RkIi8+PC9zdmc+;" vertex="1" parent="1">
          <mxGeometry x="425" y="500" width="220" height="220" as="geometry" />
        </mxCell>
        <mxCell id="jpGQAsMqD0ZTp0lZuSL0-23" value="" style="shape=image;verticalLabelPosition=bottom;labelBackgroundColor=default;verticalAlign=top;aspect=fixed;imageAspect=0;image=data:image/svg+xml,PHN2ZyB4bWxucz0iaHR0cDovL3d3dy53My5vcmcvMjAwMC9zdmciIHZpZXdCb3g9IjAgMCAxMjggMTI4Ij48cGF0aCBkPSJtMzEuNDQxIDkyLjY1Mi0zLjU4Ni41Njl2MTcuNjY3YTUuNTI3IDUuNTI3IDAgMCAwIDEuMDk0LjMwNWMuNDM3LjA4OC44NzUuMTc2IDEuMzEyLjIyLjQ4MS4wNDMuOTE3LjA4NyAxLjM5OC4xMy40ODIuMDQ0LjkxOS4wODggMS4zNTYuMDg4YTguMDAzIDguMDAzIDAgMCAwIDIuNzk5LS40MzcgNi43MjUgNi43MjUgMCAwIDAgMi4wNTUtMS4zNTUgNS42MjggNS42MjggMCAwIDAgMS4yNjgtMi4xIDcuOTE4IDcuOTE4IDAgMCAwIC40MzgtMi43NTUgMTIuNDE4IDEyLjQxOCAwIDAgMC0uMzA2LTIuNjY3IDUuMjc0IDUuMjc0IDAgMCAwLTEuMDUtMi4xIDQuNzM2IDQuNzM2IDAgMCAwLTEuNzQ5LTEuMzExIDUuNTQgNS41NCAwIDAgMC0yLjM2MS0uNDgxIDcuMjM4IDcuMjM4IDAgMCAwLTEuNC4xMyA2LjEwOCA2LjEwOCAwIDAgMC0xLjI2OC4zOTV6bS0yNy44NTYgMEwwIDkzLjIyMnYxOC4wNTloMy41ODV2LTUuNTFhNy41MTQgNy41MTQgMCAwIDEgMS4xODEgMS4xOCAxMi41NzQgMTIuNTc0IDAgMCAxIDEuMTggMS40ODggMTUuOTIzIDE1LjkyMyAwIDAgMSAxLjA1IDEuNTNjLjMwNy40OC42MTIuOTIuODc1IDEuMzU2aDQuMTFjLS4yNjEtLjUyNS0uNjEyLTEuMDkzLTEuMDA2LTEuNzVhMTguNjc1IDE4LjY3NSAwIDAgMC0xLjMxLTEuOTI0IDU1LjAyNiA1NS4wMjYgMCAwIDAtMS40ODctMS44MzUgMTcuNjYyIDE3LjY2MiAwIDAgMC0xLjQ4OC0xLjU3NiA3Mi41MDcgNzIuNTA3IDAgMCAwIDIuNjIzLTIuNzU1Yy44My0uODc0IDEuNjYyLTEuODM3IDIuNDkzLTIuNzk4SDcuNTY1Yy0uMjE4LjI2Mi0uNTI0LjYxLS44MzEuOTYtLjMwNy4zNS0uNjU2Ljc0NS0xLjAwNiAxLjE4MmEyNDYuNDU0IDI0Ni40NTQgMCAwIDEtMS4wOTMgMS4yMjRjLS4zNzcuMzc4LS43MTQuNzU2LTEuMDUgMS4xMzN6bTk0LjYzMSAyLjMxOC0zLjU4NS41Njl2MTAuNTgzYTExLjMzNCAxMS4zMzQgMCAwIDAgLjIxOCAyLjIzIDQuMzM5IDQuMzM5IDAgMCAwIC44MyAxLjc0OSA0LjA0NyA0LjA0NyAwIDAgMCAxLjUzMiAxLjA5MyA2LjY4MiA2LjY4MiAwIDAgMCAyLjQ0OC4zOTQgOC40MDcgOC40MDcgMCAwIDAgMS45NjgtLjE3NSA2Ljk2NSA2Ljk2NSAwIDAgMCAxLjQ0My0uNDM4bC0uNTI1LTIuNzk4YTcuMTEgNy4xMSAwIDAgMS0xLjEzNy4zMDYgMTAuNzIgMTAuNzIgMCAwIDEtMS4xOC4wODdjLS43ODggMC0xLjM1Ni0uMjE4LTEuNjE5LS42NTZhMy41MTYgMy41MTYgMCAwIDEtLjM5My0xLjc5MnYtNC40Nmg0LjI4NnYtMi45NzRoLTQuMjg2em0yNS4yNzYgMy4zNjdjLTEuNTMgMC0yLjc1NS4zNS0zLjYzIDEuMDVhMy4zMjcgMy4zMjcgMCAwIDAtMS4zMTIgMi43OTkgNC4yMzcgNC4yMzcgMCAwIDAgLjI2MyAxLjU3NCAzLjQyIDMuNDIgMCAwIDAgLjc0MiAxLjEzNyA0LjM3MiA0LjM3MiAwIDAgMCAxLjEzOS43ODdjLjQzNi4yMTguOTYxLjQzNyAxLjUzLjY1NmE4LjI5NSA4LjI5NSAwIDAgMSAxLjYxNy43NDRjLjM1LjIxOC41MjUuNDM2LjUyNS43NDJhLjc2Ni43NjYgMCAwIDEtLjM5My43NDQgMy41OTMgMy41OTMgMCAwIDEtMS40LjE3NSA4LjA0NyA4LjA0NyAwIDAgMS0xLjc5My0uMTc1IDEzLjM2NSAxMy4zNjUgMCAwIDEtMS44OC0uNTY4bC0uNjEyIDIuOTNhNy45ODIgNy45ODIgMCAwIDAgMS41My40OCAxMC4xMDkgMTAuMTA5IDAgMCAwIDIuNzk5LjMwN2MxLjc0OSAwIDMuMDYtLjMwNiAzLjk3OS0uOTYyYTMuMjYgMy4yNiAwIDAgMCAxLjQtMi44NDMgNC41MzggNC41MzggMCAwIDAtLjE3NS0xLjQgMi4yODQgMi4yODQgMCAwIDAtLjYxMi0xLjA5MiAzLjI2NSAzLjI2NSAwIDAgMC0xLjE4LS45MiAxNC40MjQgMTQuNDI0IDAgMCAwLTEuOTctLjg3M2MtLjM5My0uMTc1LS42OTktLjI2Mi0uOTYxLS4zOTMtLjIxOS0uMTMyLS40MzgtLjI2My0uNTY5LS4zNWEuNzM0LjczNCAwIDAgMS0uMzA2LS4zNSAxLjI3NyAxLjI3NyAwIDAgMS0uMDg3LS4zOTVjMC0uNjEyLjUyNC0uOTE4IDEuNjYyLS45MThhNi4xMTggNi4xMTggMCAwIDEgMS42MTcuMTc2Yy40ODIuMTMuOTE5LjI2MiAxLjM1Ni4zOTRsLjYxMy0yLjhhOC4wODUgOC4wODUgMCAwIDAtMS42NjItLjQzNyAxMi40NCAxMi40NCAwIDAgMC0yLjIzLS4yMnptLTc1LjY5Ni4wNDRhNS44NDQgNS44NDQgMCAwIDAtMi4yNzQuNDM3IDUuMDk3IDUuMDk3IDAgMCAwLTEuOTI0IDEuMjY5IDYuNjkyIDYuNjkyIDAgMCAwLTEuMzU1IDIuMDk5IDcuNDYzIDcuNDYzIDAgMCAwLS41MjUgMi45MyAxMC4yNzEgMTAuMjcxIDAgMCAwIC4zNSAyLjYyNCA2LjMxMiA2LjMxMiAwIDAgMCAxLjIyMyAyLjA5OSA2LjQzOSA2LjQzOSAwIDAgMCAyLjA5OSAxLjM1NSA3LjY5IDcuNjkgMCAwIDAgMi45NzQuNTI1Yy40MzggMCAuOTE4LS4wNDQgMS4zNTYtLjA4OGE5Ljg3MSA5Ljg3MSAwIDAgMCAxLjI2Ny0uMTc1IDQuNDA5IDQuNDA5IDAgMCAwIDEuMDk0LS4yMmMuMzUtLjEzLjYxMi0uMjE3Ljc4Ny0uMzA1bC0uNDgtMi45M2E3Ljg0NSA3Ljg0NSAwIDAgMS0xLjU3NS40MzggOS4yNjcgOS4yNjcgMCAwIDEtMS45MjQuMTc1IDQuMTYgNC4xNiAwIDAgMS0yLjQ0OS0uNjU2IDIuMzk3IDIuMzk3IDAgMCAxLTEuMDUtMS43NWg4LjEzNGMwLS4yMTguMDQ0LS40MzYuMDQ0LS42NTVhNC4wMDIgNC4wMDIgMCAwIDAgLjA0My0uN2MwLTIuMS0uNTI0LTMuNzE3LTEuNTczLTQuODFhNS41OTcgNS41OTcgMCAwIDAtNC4yNDItMS42NjJ6bTM4LjM1MSAwYTUuODQ0IDUuODQ0IDAgMCAwLTIuMjc0LjQzNyA1LjA5NyA1LjA5NyAwIDAgMC0xLjkyNCAxLjI2OSA2LjY5MiA2LjY5MiAwIDAgMC0xLjM1NiAyLjA5OSA3LjQ2MiA3LjQ2MiAwIDAgMC0uNTI1IDIuOTMgMTAuMjY5IDEwLjI2OSAwIDAgMCAuMzUgMi42MjQgNi4zMTIgNi4zMTIgMCAwIDAgMS4yMjUgMi4wOTkgNi40MzggNi40MzggMCAwIDAgMi4wOTkgMS4zNTUgNy42OSA3LjY5IDAgMCAwIDIuOTczLjUyNWMuNDM3IDAgLjkxOC0uMDQ0IDEuMzU2LS4wODhhOS44NzMgOS44NzMgMCAwIDAgMS4yNjgtLjE3NSA0LjQwOCA0LjQwOCAwIDAgMCAxLjA5My0uMjJjLjM1LS4xMy42MTItLjIxNy43ODctLjMwNWwtLjQ4LTIuOTNhNy44NDQgNy44NDQgMCAwIDEtMS41NzQuNDM4IDkuMjY3IDkuMjY3IDAgMCAxLTEuOTI2LjE3NSA0LjE2IDQuMTYgMCAwIDEtMi40NDgtLjY1NiAyLjM5NyAyLjM5NyAwIDAgMS0xLjA1LTEuNzVoOC4xMzRjMC0uMjE4LjA0NC0uNDM2LjA0NC0uNjU1YTQgNCAwIDAgMCAuMDQzLS43YzAtMi4wOTgtLjUyNC0zLjcxNy0xLjU3My00LjgxYTUuNTk3IDUuNTk3IDAgMCAwLTQuMjQyLTEuNjYyem0yNC4yNyAwYTUuODQ0IDUuODQ0IDAgMCAwLTIuMjc1LjQzNyA1LjA5NyA1LjA5NyAwIDAgMC0xLjkyNCAxLjI2OSA2LjY5MiA2LjY5MiAwIDAgMC0xLjM1NSAyLjA5OSA3LjQ2MiA3LjQ2MiAwIDAgMC0uNTI1IDIuOTMgOC42NDcgOC42NDcgMCAwIDAgLjM1IDIuNjI0IDYuMzEyIDYuMzEyIDAgMCAwIDEuMjI1IDIuMDk5IDYuNDM4IDYuNDM4IDAgMCAwIDIuMDk4IDEuMzU1IDcuNjkgNy42OSAwIDAgMCAyLjk3NC41MjVjLjQzNyAwIC45MTgtLjA0NCAxLjM1Ni0uMDg4YTkuODcxIDkuODcxIDAgMCAwIDEuMjY3LS4xNzUgNC40MDggNC40MDggMCAwIDAgMS4wOTQtLjIyYy4zNS0uMTMuNjEyLS4yMTcuNzg3LS4zMDVsLS40ODEtMi45M2E3Ljg0NCA3Ljg0NCAwIDAgMS0xLjU3NC40MzggOS4yNjcgOS4yNjcgMCAwIDEtMS45MjUuMTc1IDQuMTYgNC4xNiAwIDAgMS0yLjQ0OC0uNjU2IDIuMzk3IDIuMzk3IDAgMCAxLTEuMDUtMS43NWg4LjEzNGMwLS4yMTguMDQ0LS40MzYuMDQ0LS42NTVhNC4wMDEgNC4wMDEgMCAwIDAgLjA0My0uN2MwLTIuMDk4LS41MjQtMy43MTctMS41NzQtNC44MWE1LjU5NyA1LjU5NyAwIDAgMC00LjI0MS0xLjY2MnptLTQ4Ljg5LjA0NWExMi4zMDIgMTIuMzAyIDAgMCAwLTIuOTMuMzA1IDE4LjYwMSAxOC42MDEgMCAwIDAtMi4yNzQuNjEydjEyLjAyNmgzLjU4NnYtOS42NjRhNi44NjkgNi44NjkgMCAwIDEgLjctLjEzMSA3LjcxIDcuNzEgMCAwIDEgLjgzLS4wODggNy4yMzcgNy4yMzcgMCAwIDEgMS40LjEzMiA2LjU3IDYuNTcgMCAwIDEgMS4xMzcuMjE5di0uMDAxbC42MTItMi45NzRjLS4xNzUtLjA0My0uNDM4LS4xMy0uNy0uMTc0YTMyLjk4NyAzMi45ODcgMCAwIDEtLjgzLS4xMzIgNS45NzUgNS45NzUgMCAwIDAtLjgzMS0uMDg3IDQuMjU2IDQuMjU2IDAgMCAwLS43LS4wNDN6bTEwLjM2NCAwYTIxLjE0NCAyMS4xNDQgMCAwIDAtNS4zNzguNjk5aC0uMDAxdjEyLjI4OGgzLjU0M3YtOS43NTJhNC4zMzIgNC4zMzIgMCAwIDEgLjc4Ni0uMDg3IDUuNTc2IDUuNTc2IDAgMCAxIC44MzEtLjA0NGMuODMxIDAgMS4zOTkuMjE5IDEuNzA1LjcuMzA3LjQ4LjQzOCAxLjMxMi40MzggMi40NXY2LjY5aDMuNTg2di03LjEzYTkuNzU1IDkuNzU1IDAgMCAwLS4yNjMtMi4zNiA1LjEwOCA1LjEwOCAwIDAgMC0uODc0LTEuODM3IDMuNzQ2IDMuNzQ2IDAgMCAwLTEuNzA2LTEuMTgxIDYuNjcgNi42NyAwIDAgMC0yLjY2Ny0uNDM2em0tNTguMzM2LjI2MnY3LjA0YTEwLjI4MyAxMC4yODMgMCAwIDAgLjI2MyAyLjM2IDQuMDE3IDQuMDE3IDAgMCAwIDIuNTM2IDMuMDYyIDcuMDQ2IDcuMDQ2IDAgMCAwIDIuNzExLjQzOCAxNi45MDMgMTYuOTAzIDAgMCAwIDMuMDE4LS4yMiAxNy4wMTYgMTcuMDE2IDAgMCAwIDIuMzYxLS40OGwuMDQ0LTEyLjJoLTMuNTg2djkuNzVjLS4yNjIuMDQ1LS40ODEuMDQ1LS43ODcuMDg4YTUuNTc2IDUuNTc2IDAgMCAxLS44My4wNDRjLS44MzIgMC0xLjQtLjI2Mi0xLjcwNi0uNzg3LS4zMDYtLjUyNC0uNDM3LTEuMzU1LS40MzctMi40OTJ2LTYuNjAzem0zNC4yODQgMi41NzlhMi4wOSAyLjA5IDAgMCAxIDEuNzUuNzg4IDIuNjU4IDIuNjU4IDAgMCAxIC4zOTMuNzg2IDIuODI3IDIuODI3IDAgMCAxIC4xNy44MzJoLTQuNzE4YTYuMzk0IDYuMzk0IDAgMCAxIC4yMTktLjg3NSAyLjI5NCAyLjI5NCAwIDAgMSAuNDM3LS43ODcgMS43NCAxLjc0IDAgMCAxIC43LS41MjUgMi42NDIgMi42NDIgMCAwIDEgMS4wNDktLjIyem0zOC4zNSAwYTIuMDkgMi4wOSAwIDAgMSAxLjc1MS43ODggMi42NTkgMi42NTkgMCAwIDEgLjM5My43ODYgMi44MjggMi44MjggMCAwIDEgLjE3LjgzMmgtNC43MThhNi4zOTEgNi4zOTEgMCAwIDEgLjIxOS0uODc1IDIuMjk0IDIuMjk0IDAgMCAxIC40MzctLjc4NyAxLjc0IDEuNzQgMCAwIDEgLjctLjUyNSAyLjY0MiAyLjY0MiAwIDAgMSAxLjA0OS0uMjJ6bTI0LjIyOCAwYTIuMDkgMi4wOSAwIDAgMSAxLjc1Ljc4OCAyLjY1OCAyLjY1OCAwIDAgMSAuMzkyLjc4NiAyLjgyNyAyLjgyNyAwIDAgMSAuMTcuODMyaC00LjcxOGE2LjM5MiA2LjM5MiAwIDAgMSAuMjItLjg3NSAyLjI5NCAyLjI5NCAwIDAgMSAuNDM2LS43ODcgMS43NCAxLjc0IDAgMCAxIC43LS41MjUgMi42NDIgMi42NDIgMCAwIDEgMS4wNS0uMjJ6bS03Ny4wMDguMTc2YzEuNzA1IDAgMi41MzcgMS4xMzYgMi41MzcgMy40NTRhNC40ODQgNC40ODQgMCAwIDEtLjc0NCAyLjY2OCAyLjcwOCAyLjcwOCAwIDAgMS0yLjIzIDEuMDA2Yy0uMzA3IDAtLjYxMy0uMDQ1LS44NzUtLjA0NS0uMjYzLS4wNDMtLjQ4MS0uMDQzLS42NTYtLjA4N3YtNi41MTZhMy4zMDQgMy4zMDQgMCAwIDEgLjg3NS0uMzUgNC42NyA0LjY3IDAgMCAxIDEuMDkzLS4xM3oiLz48cGF0aCBkPSJNNjMuOCAxNi4yODNhNC45NTYgNC45MTUgMCAwIDAtMS44OTkuNDhMMzUuOTg1IDI5LjE0NmE0Ljk1NiA0LjkxNSAwIDAgMC0yLjY4MiAzLjMzNUwyNi45MSA2MC4yOTZhNC45NTYgNC45MTUgMCAwIDAgLjY3MyAzLjc2OCA0Ljk1NiA0LjkxNSAwIDAgMCAuMjgxLjM5TDQ1LjgwMiA4Ni43NmE0Ljk1NiA0LjkxNSAwIDAgMCAzLjg3NSAxLjg1bDI4Ljc2Ny0uMDA3YTQuOTU2IDQuOTE1IDAgMCAwIDMuODc0LTEuODQ3TDEwMC4yNSA2NC40NWE0Ljk1NiA0LjkxNSAwIDAgMCAuOTU4LTQuMTZsLTYuNDA0LTI3LjgxNWE0Ljk1NiA0LjkxNSAwIDAgMC0yLjY4MS0zLjMzNGwtMjUuOTItMTIuMzc4YTQuOTU2IDQuOTE1IDAgMCAwLTIuNDAzLS40OHoiIGZpbGw9IiMzMjZjZTUiLz48cGF0aCBkPSJNNjQuMDU3IDI1Ljc0OGMtLjg1NyAwLTEuNTUxLjc3Mi0xLjU1MSAxLjcyNCAwIC4wMTUuMDAzLjAyOS4wMDMuMDQzLS4wMDEuMTMtLjAwNy4yODUtLjAwMy4zOTguMDIuNTQ5LjE0Ljk3LjIxMiAxLjQ3NS4xMyAxLjA4Mi4yNCAxLjk4LjE3MiAyLjgxNC0uMDY1LjMxNC0uMjk3LjYwMi0uNTAzLjgwMmwtLjAzNy42NTZhMjAuMTg3IDIwLjE4NyAwIDAgMC0yLjgwNC40MyAxOS45NTIgMTkuOTUyIDAgMCAwLTEwLjEzNiA1Ljc5IDI2LjAwMSAyNi4wMDEgMCAwIDEtLjU2LS4zOTZjLS4yNzcuMDM3LS41NTcuMTIzLS45MjEtLjA5LS42OTUtLjQ2Ny0xLjMyNy0xLjExMi0yLjA5Mi0xLjg5LS4zNS0uMzcxLS42MDQtLjcyNC0xLjAyLTEuMDgzLS4wOTUtLjA4MS0uMjQtLjE5MS0uMzQ1LS4yNzVhMS44NDUgMS44NDUgMCAwIDAtMS4wOC0uNDA4IDEuNDk0IDEuNDk0IDAgMCAwLTEuMjM3LjU0N2MtLjUzNC42Ny0uMzYzIDEuNjk0LjM4IDIuMjg3bC4wMjQuMDE3Yy4xMDIuMDgzLjIyOC4xODkuMzIyLjI1OC40NDIuMzI3Ljg0NS40OTQgMS4yODYuNzUzLjkyNy41NzMgMS42OTcgMS4wNDggMi4zMDcgMS42Mi4yMzguMjU1LjI4LjcwMi4zMTEuODk2bC40OTcuNDQ0YTIwLjA3MyAyMC4wNzMgMCAwIDAtMy4xNjUgMTMuOTk0bC0uNjUuMTg5Yy0uMTcuMjItLjQxMy41NjktLjY2Ni42NzItLjc5OC4yNTItMS42OTYuMzQ0LTIuNzguNDU4LS41MS4wNDItLjk1LjAxNy0xLjQ4OS4xMTktLjExOS4wMjMtLjI4NC4wNjYtLjQxNC4wOTZsLS4wMTQuMDAzLS4wMjMuMDA3Yy0uOTE0LjIyLTEuNTAxIDEuMDYtMS4zMTIgMS44OS4xODkuODI3IDEuMDgyIDEuMzMgMi4wMDIgMS4xMzMuMDA2LS4wMDIuMDE2LS4wMDIuMDIzLS4wMDMuMDEtLjAwMy4wMi0uMDA4LjAzLS4wMS4xMjgtLjAyOC4yODktLjA2LjQtLjA5LjUzMS0uMTQyLjkxNi0uMzUgMS4zOTMtLjUzMyAxLjAyNi0uMzcgMS44NzYtLjY3NiAyLjcwNC0uNzk2LjM0Ni0uMDI3LjcxLjIxMy44OTIuMzE1bC42NzYtLjExNmMxLjU1NiA0LjgyNCA0LjgxNyA4LjcyMyA4Ljk0NiAxMS4xN2wtLjI4Mi42NzZjLjEwMi4yNjMuMjE0LjYxOC4xMzguODc3LS4zLjc4LS44MTcgMS42MDUtMS40MDQgMi41MjQtLjI4NC40MjQtLjU3NS43NTMtLjgzMiAxLjI0LS4wNjEuMTE1LS4xNC4yOTQtLjE5OS40MTctLjM5OC44NTMtLjEwNiAxLjgzNS42NiAyLjIwNC43Ny4zNyAxLjcyNy0uMDIgMi4xNDEtLjg3NWwuMDA0LS4wMDR2LS4wMDNjLjA1OS0uMTIyLjE0Mi0uMjguMTkyLS4zOTUuMjItLjUwMy4yOTMtLjkzNS40NDctMS40MjIuNDEtMS4wMy42MzYtMi4xMTIgMS4yMDEtMi43ODYuMTU1LS4xODUuNDA3LS4yNTYuNjY5LS4zMjZsLjM1MS0uNjM2YTIwLjA0MyAyMC4wNDMgMCAwIDAgMTEuNjU0LjgzOCAyMC4xMjggMjAuMTI4IDAgMCAwIDIuNjYxLS44MDJjLjEuMTc1LjI4My41MTIuMzMyLjU5Ny4yNjYuMDg2LjU1Ni4xMy43OTIuNDguNDIzLjcyMi43MTIgMS41NzcgMS4wNjQgMi42MDkuMTU1LjQ4Ny4yMzEuOTE4LjQ1IDEuNDIyLjA1LjExNC4xMzQuMjc2LjE5My4zOTcuNDEzLjg1OCAxLjM3MyAxLjI1IDIuMTQ1Ljg3OS43NjUtLjM3IDEuMDU4LTEuMzUyLjY2LTIuMjA0LS4wNi0uMTIzLS4xNDItLjMwMi0uMjAzLS40MTgtLjI1Ny0uNDg2LS41NDgtLjgxMi0uODMyLTEuMjM2LS41ODctLjkyLTEuMDc0LTEuNjgyLTEuMzc1LTIuNDYzLS4xMjYtLjQwMy4wMi0uNjUzLjExOS0uOTE1LS4wNTktLjA2Ny0uMTg1LS40NDctLjI1OS0uNjI2YTIwLjE4NiAyMC4xODYgMCAwIDAgOC45NDMtMTEuMjVjLjIuMDMyLjU1LjA5NC42NjMuMTE2LjIzMy0uMTU0LjQ0Ny0uMzU0Ljg2OC0uMzIxLjgyOC4xMiAxLjY3OC40MjcgMi43MDUuNzk1LjQ3Ny4xODMuODYxLjM5NSAxLjM5Mi41MzcuMTEyLjAzLjI3My4wNTguNC4wODYuMDExLjAwMy4wMi4wMDguMDMuMDFsLjAyNC4wMDRjLjkyLjE5OCAxLjgxMy0uMzA2IDIuMDAyLTEuMTM0LjE4OS0uODI4LS4zOTgtMS42NjgtMS4zMTMtMS44OS0uMTMzLS4wMy0uMzIxLS4wOC0uNDUtLjEwNS0uNTQtLjEwMi0uOTgtLjA3Ny0xLjQ4OS0uMTItMS4wODQtLjExMy0xLjk4Mi0uMjA1LTIuNzgtLjQ1Ny0uMzI2LS4xMjYtLjU1OC0uNTEzLS42Ny0uNjczbC0uNjI3LS4xODJjLjMyNS0yLjM1LjIzOC00Ljc5NS0uMzI0LTcuMjQyYTIwLjA4IDIwLjA4IDAgMCAwLTIuOTA3LTYuNzJjLjE2LS4xNDUuNDY0LS40MTMuNTUtLjQ5My4wMjUtLjI3OC4wMDQtLjU3LjI5Mi0uODc4LjYxLS41NzMgMS4zNzktMS4wNDggMi4zMDctMS42Mi40NC0uMjYuODQ3LS40MjcgMS4yODktLjc1My4xLS4wNzQuMjM2LS4xOS4zNDEtLjI3NS43NDQtLjU5NC45MTYtMS42MTcuMzgxLTIuMjg3LS41MzQtLjY3LTEuNTY5LS43MzMtMi4zMTMtLjE0LS4xMDYuMDg0LS4yNS4xOTQtLjM0NS4yNzYtLjQxNi4zNTgtLjY3My43MTItMS4wMjQgMS4wODQtLjc2NS43NzctMS4zOTcgMS40MjUtMi4wOTEgMS44OTItLjMwMS4xNzUtLjc0Mi4xMTUtLjk0Mi4xMDNsLS41OS40MmMtMy4zNjQtMy41MjctNy45NDQtNS43ODItMTIuODc2LTYuMjJhMzcuMjI4IDM3LjIyOCAwIDAgMS0uMDM3LS42OTNjLS4yMDItLjE5My0uNDQ2LS4zNTgtLjUwNy0uNzc1LS4wNjgtLjgzNC4wNDUtMS43MzIuMTc2LTIuODE0LjA3Mi0uNTA2LjE5MS0uOTI2LjIxMi0xLjQ3NS4wMDQtLjEyNS0uMDAzLS4zMDYtLjAwNC0uNDQxIDAtLjk1Mi0uNjk0LTEuNzI0LTEuNTUxLTEuNzI0ek02Mi4xMTUgMzcuNzhsLS40NjEgOC4xMzctLjAzMy4wMTdhMS4zNjcgMS4zNjcgMCAwIDEtMS4zNjYgMS4zMDkgMS4zNiAxLjM2IDAgMCAxLS44MDUtLjI2MmwtLjAxMy4wMDctNi42NzItNC43M2ExNS45OCAxNS45OCAwIDAgMSA3LjY5Ni00LjE5MyAxNi4zNDcgMTYuMzQ3IDAgMCAxIDEuNjU0LS4yODV6bTMuODg4IDBhMTYuMTEzIDE2LjExMyAwIDAgMSA5LjI5MyA0LjQ4bC02LjYyOSA0LjctLjAyMy0uMDFhMS4zNjkgMS4zNjkgMCAwIDEtMS44NzYtLjI1IDEuMzU4IDEuMzU4IDAgMCAxLS4yOTgtLjc5M2wtLjAwNy0uMDAzem0tMTUuNjU4IDcuNTE3IDYuMDkyIDUuNDUtLjAwNy4wMzNjLjU1LjQ3OC42MzEgMS4zMDcuMTczIDEuODgyYTEuMzY3IDEuMzY3IDAgMCAxLS43MS40NjhsLS4wMDYuMDI2LTcuODEgMi4yNTRhMTUuOTc2IDE1Ljk3NiAwIDAgMSAyLjI2OC0xMC4xMTN6bTI3LjM4LjAwNGExNi4xNzUgMTYuMTc1IDAgMCAxIDIgNC44ODJjLjQwMyAxLjc1NS41MDQgMy41MDcuMzM4IDUuMmwtNy44NDktMi4yNi0uMDA3LS4wMzNhMS4zNjggMS4zNjggMCAwIDEtLjk3LTEuNjI0IDEuMzU2IDEuMzU2IDAgMCAxIC40MzMtLjcyNmwtLjAwMy0uMDE3IDYuMDU5LTUuNDIyem0tMTQuOTE4IDUuODY2aDIuNDk2bDEuNTUxIDEuOTQtLjU1NiAyLjQxOS0yLjI0MSAxLjA3Ny0yLjI0Ny0xLjA4LS41NTctMi40MnptOC4wMDIgNi42MzZhMS4zNTkgMS4zNTkgMCAwIDEgLjMxNS4wMjNsLjAxMy0uMDE2IDguMDc3IDEuMzY1YTE1Ljk5NiAxNS45OTYgMCAwIDEtNi40NjYgOC4xMjRsLTMuMTM2LTcuNTc0LjAxLS4wMTNhMS4zNyAxLjM3IDAgMCAxIDEuMTg3LTEuOTF6bS0xMy41NjcuMDMzYTEuMzY4IDEuMzY4IDAgMCAxIDEuMjM3IDEuOTA2bC4wMjMuMDMtMy4xMDIgNy40OTdhMTYuMDYyIDE2LjA2MiAwIDAgMS02LjQ0Ny04LjA2N2w4LjAwOC0xLjM2LjAxMy4wMTdhMS4zODQgMS4zODQgMCAwIDEgLjI2OC0uMDIzem02Ljc2NSAzLjI4NWExLjM1NCAxLjM1NCAwIDAgMSAuNjQuMTM2Yy4yNzEuMTMuNDgxLjMzNi42MTMuNTgzaC4wM2wzLjk0OCA3LjEzM2ExNi4zNjIgMTYuMzYyIDAgMCAxLTEuNTc4LjQ0IDE2LjA0IDE2LjA0IDAgMCAxLTguNzU0LS40NWwzLjkzOC03LjEyaC4wMDdhMS4zNyAxLjM3IDAgMCAxIDEuMTU2LS43MjJ6IiBmaWxsPSIjZmZmIi8+PC9zdmc+;" vertex="1" parent="1">
          <mxGeometry x="335" y="1" width="400" height="400" as="geometry" />
        </mxCell>
        <mxCell id="jpGQAsMqD0ZTp0lZuSL0-42" value="" style="shape=singleArrow;direction=west;whiteSpace=wrap;html=1;shadow=1;fillColor=#0050ef;fontColor=#ffffff;strokeColor=#001DBC;fillStyle=auto;gradientColor=#99CCFF;gradientDirection=west;" vertex="1" parent="1">
          <mxGeometry x="211.5" y="440" width="168.5" height="100" as="geometry" />
        </mxCell>
        <mxCell id="jpGQAsMqD0ZTp0lZuSL0-43" value="" style="shape=singleArrow;whiteSpace=wrap;html=1;fillColor=#0050ef;fontColor=#ffffff;strokeColor=#001DBC;gradientColor=#66B2FF;gradientDirection=west;" vertex="1" parent="1">
          <mxGeometry x="681.5" y="437.25" width="168.5" height="100" as="geometry" />
        </mxCell>
      </root>
    </mxGraphModel>
  </diagram>
</mxfile>
